HIERARCHY
ROOT Hips
{
  OFFSET 0.0 0.0 0.0
  CHANNELS 6 Xposition Yposition Zposition Zrotation Xrotation Yrotation
  JOINT Spine
  {
    OFFSET 0.0 10.0 0.0
    CHANNELS 3 Zrotation Xrotation Yrotation
    JOINT Chest
    {
      OFFSET 0.0 10.0 0.0
      CHANNELS 3 Zrotation Xrotation Yrotation
      JOINT Neck
      {
        OFFSET 0.0 5.0 0.0
        CHANNELS 3 Zrotation Xrotation Yrotation
        JOINT Head
        {
          OFFSET 0.0 5.0 0.0
          CHANNELS 3 Zrotation Xrotation Yrotation
          End Site
          {
            OFFSET 0.0 3.0 0.0
          }
        }
      }
      JOINT LeftShoulder
      {
        OFFSET 5.0 3.0 0.0
        CHANNELS 3 Zrotation Xrotation Yrotation
        JOINT LeftArm
        {
          OFFSET 10.0 0.0 0.0
          CHANNELS 3 Zrotation Xrotation Yrotation
          JOINT LeftForeArm
          {
            OFFSET 10.0 0.0 0.0
            CHANNELS 3 Zrotation Xrotation Yrotation
            JOINT LeftHand
            {
              OFFSET 8.0 0.0 0.0
              CHANNELS 3 Zrotation Xrotation Yrotation
              End Site
              {
                OFFSET 3.0 0.0 0.0
              }
            }
          }
        }
      }
      JOINT RightShoulder
      {
        OFFSET -5.0 3.0 0.0
        CHANNELS 3 Zrotation Xrotation Yrotation
        JOINT RightArm
        {
          OFFSET -10.0 0.0 0.0
          CHANNELS 3 Zrotation Xrotation Yrotation
          JOINT RightForeArm
          {
            OFFSET -10.0 0.0 0.0
            CHANNELS 3 Zrotation Xrotation Yrotation
            JOINT RightHand
            {
              OFFSET -8.0 0.0 0.0
              CHANNELS 3 Zrotation Xrotation Yrotation
              End Site
              {
                OFFSET -3.0 0.0 0.0
              }
            }
          }
        }
      }
    }
  }
  JOINT LeftHip
  {
    OFFSET 5.0 -2.0 0.0
    CHANNELS 3 Zrotation Xrotation Yrotation
    JOINT LeftThigh
    {
      OFFSET 0.0 -20.0 0.0
      CHANNELS 3 Zrotation Xrotation Yrotation
      JOINT LeftShin
      {
        OFFSET 0.0 -20.0 0.0
        CHANNELS 3 Zrotation Xrotation Yrotation
        JOINT LeftFoot
        {
          OFFSET 0.0 -5.0 0.0
          CHANNELS 3 Zrotation Xrotation Yrotation
          End Site
          {
            OFFSET 0.0 -2.0 5.0
          }
        }
      }
    }
  }
  JOINT RightHip
  {
    OFFSET -5.0 -2.0 0.0
    CHANNELS 3 Zrotation Xrotation Yrotation
    JOINT RightThigh
    {
      OFFSET 0.0 -20.0 0.0
      CHANNELS 3 Zrotation Xrotation Yrotation
      JOINT RightShin
      {
        OFFSET 0.0 -20.0 0.0
        CHANNELS 3 Zrotation Xrotation Yrotation
        JOINT RightFoot
        {
          OFFSET 0.0 -5.0 0.0
          CHANNELS 3 Zrotation Xrotation Yrotation
          End Site
          {
            OFFSET 0.0 -2.0 5.0
          }
        }
      }
    }
  }
}
MOTION
Frames: 13
Frame Time: 0.033333
0.000000 40.000000 0.000000 0.000000 0.000000 0.000000 0.000000 0.000000 0.000000 0.000000 0.000000 0.000000 0.000000 0.000000 0.000000 0.000000 0.000000 0.000000 0.000000 0.000000 -10.000000 0.000000 0.000000 0.000000 0.000000 0.000000 0.000000 0.000000 0.000000 0.000000 0.000000 0.000000 10.000000 0.000000 0.000000 -0.000000 0.000000 0.000000 -0.000000 0.000000 0.000000 0.000000 0.000000 0.000000 0.000000 0.000000 0.000000 -0.000000 0.000000 0.000000 0.000000 0.000000 0.000000 0.000000 0.000000 0.000000 0.000000 0.000000 0.000000 0.000000 0.000000 0.000000 -0.000000 0.000000 0.000000 0.000000
0.090406 42.703861 0.000000 0.451412 0.000000 0.000000 0.000000 0.000000 0.000000 0.000000 0.225706 0.000000 0.000000 0.000000 0.000000 0.000000 0.135424 0.000000 0.000000 0.000000 -10.000000 0.000000 0.000000 1.622317 0.000000 0.000000 0.000000 0.000000 0.000000 0.000000 0.000000 0.000000 10.000000 0.000000 0.000000 -1.622317 0.000000 0.000000 -1.622317 0.000000 0.000000 0.000000 0.000000 0.000000 0.000000 0.000000 0.000000 -5.407723 0.000000 0.000000 5.407723 0.000000 0.000000 0.000000 0.000000 0.000000 0.000000 0.000000 0.000000 5.407723 0.000000 0.000000 0.000000 0.000000 0.000000 0.000000
0.180811 45.358076 0.000000 0.899137 0.000000 0.000000 0.000000 0.000000 0.000000 0.000000 0.449569 0.000000 0.000000 0.000000 0.000000 0.000000 0.269741 0.000000 0.000000 0.000000 -10.000000 0.000000 0.000000 3.214846 0.000000 0.000000 0.000000 0.000000 0.000000 0.000000 0.000000 0.000000 10.000000 0.000000 0.000000 -3.214846 0.000000 0.000000 -3.214846 0.000000 0.000000 0.000000 0.000000 0.000000 0.000000 0.000000 0.000000 -10.716152 0.000000 0.000000 10.716152 0.000000 0.000000 0.000000 0.000000 0.000000 0.000000 0.000000 0.000000 10.716152 0.000000 0.000000 0.000000 0.000000 0.000000 0.000000
0.271217 47.913908 0.000000 1.339519 0.000000 0.000000 0.000000 0.000000 0.000000 0.000000 0.669759 0.000000 0.000000 0.000000 0.000000 0.000000 0.401856 0.000000 0.000000 0.000000 -10.000000 0.000000 0.000000 4.748345 0.000000 0.000000 0.000000 0.000000 0.000000 0.000000 0.000000 0.000000 10.000000 0.000000 0.000000 -4.748345 0.000000 0.000000 -4.748345 0.000000 0.000000 0.000000 0.000000 0.000000 0.000000 0.000000 0.000000 -15.827817 0.000000 0.000000 15.827817 0.000000 0.000000 0.000000 0.000000 0.000000 0.000000 0.000000 0.000000 15.827817 0.000000 0.000000 0.000000 0.000000 0.000000 0.000000
0.361622 50.324430 0.000000 1.768960 0.000000 0.000000 0.000000 0.000000 0.000000 0.000000 0.884480 0.000000 0.000000 0.000000 0.000000 0.000000 0.530688 0.000000 0.000000 0.000000 -10.000000 0.000000 0.000000 6.194658 0.000000 0.000000 0.000000 0.000000 0.000000 0.000000 0.000000 0.000000 10.000000 0.000000 0.000000 -6.194658 0.000000 0.000000 -6.194658 0.000000 0.000000 0.000000 0.000000 0.000000 0.000000 0.000000 0.000000 -20.648860 0.000000 0.000000 20.648860 0.000000 0.000000 0.000000 0.000000 0.000000 0.000000 0.000000 0.000000 20.648860 0.000000 0.000000 0.000000 0.000000 0.000000 0.000000
0.452028 52.545380 0.000000 2.183952 0.000000 0.000000 0.000000 0.000000 0.000000 0.000000 1.091976 0.000000 0.000000 0.000000 0.000000 0.000000 0.655186 0.000000 0.000000 0.000000 -10.000000 0.000000 0.000000 7.527228 0.000000 0.000000 0.000000 0.000000 0.000000 0.000000 0.000000 0.000000 10.000000 0.000000 0.000000 -7.527228 0.000000 0.000000 -7.527228 0.000000 0.000000 0.000000 0.000000 0.000000 0.000000 0.000000 0.000000 -25.090760 0.000000 0.000000 25.090760 0.000000 0.000000 0.000000 0.000000 0.000000 0.000000 0.000000 0.000000 25.090760 0.000000 0.000000 0.000000 0.000000 0.000000 0.000000
0.542433 54.535979 0.000000 2.581107 0.000000 0.000000 0.000000 0.000000 0.000000 0.000000 1.290554 0.000000 0.000000 0.000000 0.000000 0.000000 0.774332 0.000000 0.000000 0.000000 -10.000000 0.000000 0.000000 8.721587 0.000000 0.000000 0.000000 0.000000 0.000000 0.000000 0.000000 0.000000 10.000000 0.000000 0.000000 -8.721587 0.000000 0.000000 -8.721587 0.000000 0.000000 0.000000 0.000000 0.000000 0.000000 0.000000 0.000000 -29.071958 0.000000 0.000000 29.071958 0.000000 0.000000 0.000000 0.000000 0.000000 0.000000 0.000000 0.000000 29.071958 0.000000 0.000000 0.000000 0.000000 0.000000 0.000000
0.632839 56.259676 0.000000 2.957181 0.000000 0.000000 0.000000 0.000000 0.000000 0.000000 1.478591 0.000000 0.000000 0.000000 0.000000 0.000000 0.887154 0.000000 0.000000 0.000000 -10.000000 0.000000 0.000000 9.755806 0.000000 0.000000 0.000000 0.000000 0.000000 0.000000 0.000000 0.000000 10.000000 0.000000 0.000000 -9.755806 0.000000 0.000000 -9.755806 0.000000 0.000000 0.000000 0.000000 0.000000 0.000000 0.000000 0.000000 -32.519352 0.000000 0.000000 32.519352 0.000000 0.000000 0.000000 0.000000 0.000000 0.000000 0.000000 0.000000 32.519352 0.000000 0.000000 0.000000 0.000000 0.000000 0.000000
0.723244 57.684822 0.000000 3.309102 0.000000 0.000000 0.000000 0.000000 0.000000 0.000000 1.654551 0.000000 0.000000 0.000000 0.000000 0.000000 0.992730 0.000000 0.000000 0.000000 -10.000000 0.000000 0.000000 10.610893 0.000000 0.000000 0.000000 0.000000 0.000000 0.000000 0.000000 0.000000 10.000000 0.000000 0.000000 -10.610893 0.000000 0.000000 -10.610893 0.000000 0.000000 0.000000 0.000000 0.000000 0.000000 0.000000 0.000000 -35.369643 0.000000 0.000000 35.369643 0.000000 0.000000 0.000000 0.000000 0.000000 0.000000 0.000000 0.000000 35.369643 0.000000 0.000000 0.000000 0.000000 0.000000 0.000000
0.813650 58.785249 0.000000 3.633995 0.000000 0.000000 0.000000 0.000000 0.000000 0.000000 1.816997 0.000000 0.000000 0.000000 0.000000 0.000000 1.090198 0.000000 0.000000 0.000000 -10.000000 0.000000 0.000000 11.271149 0.000000 0.000000 0.000000 0.000000 0.000000 0.000000 0.000000 0.000000 10.000000 0.000000 0.000000 -11.271149 0.000000 0.000000 -11.271149 0.000000 0.000000 0.000000 0.000000 0.000000 0.000000 0.000000 0.000000 -37.570497 0.000000 0.000000 37.570497 0.000000 0.000000 0.000000 0.000000 0.000000 0.000000 0.000000 0.000000 37.570497 0.000000 0.000000 0.000000 0.000000 0.000000 0.000000
0.904055 59.540751 0.000000 3.929207 0.000000 0.000000 0.000000 0.000000 0.000000 0.000000 1.964603 0.000000 0.000000 0.000000 0.000000 0.000000 1.178762 0.000000 0.000000 0.000000 -10.000000 0.000000 0.000000 11.724451 0.000000 0.000000 0.000000 0.000000 0.000000 0.000000 0.000000 0.000000 10.000000 0.000000 0.000000 -11.724451 0.000000 0.000000 -11.724451 0.000000 0.000000 0.000000 0.000000 0.000000 0.000000 0.000000 0.000000 -39.081502 0.000000 0.000000 39.081502 0.000000 0.000000 0.000000 0.000000 0.000000 0.000000 0.000000 0.000000 39.081502 0.000000 0.000000 0.000000 0.000000 0.000000 0.000000
0.994461 59.937457 0.000000 4.192327 0.000000 0.000000 0.000000 0.000000 0.000000 0.000000 2.096163 0.000000 0.000000 0.000000 0.000000 0.000000 1.257698 0.000000 0.000000 0.000000 -10.000000 0.000000 0.000000 11.962474 0.000000 0.000000 0.000000 0.000000 0.000000 0.000000 0.000000 0.000000 10.000000 0.000000 0.000000 -11.962474 0.000000 0.000000 -11.962474 0.000000 0.000000 0.000000 0.000000 0.000000 0.000000 0.000000 0.000000 -39.874914 0.000000 0.000000 39.874914 0.000000 0.000000 0.000000 0.000000 0.000000 0.000000 0.000000 0.000000 39.874914 0.000000 0.000000 0.000000 0.000000 0.000000 0.000000
1.084867 59.968082 0.000000 4.421205 0.000000 0.000000 0.000000 0.000000 0.000000 0.000000 2.210603 0.000000 0.000000 0.000000 0.000000 0.000000 1.326362 0.000000 0.000000 0.000000 -10.000000 0.000000 0.000000 11.980849 0.000000 0.000000 0.000000 0.000000 0.000000 0.000000 0.000000 0.000000 10.000000 0.000000 0.000000 -11.980849 0.000000 0.000000 -11.980849 0.000000 0.000000 0.000000 0.000000 0.000000 0.000000 0.000000 0.000000 -39.936164 0.000000 0.000000 39.936164 0.000000 0.000000 0.000000 0.000000 0.000000 0.000000 0.000000 0.000000 39.936164 0.000000 0.000000 0.000000 0.000000 0.000000 0.000000
